<svg xmlns="http://www.w3.org/2000/svg" width="42" height="42" viewBox="0 0 42 42" fill="#F3B434">
  <ellipse cx="21" cy="20.9" rx="20.7" ry="20.9" fill="#FFF"></ellipse>
  <path d="M41.6 20.7C31 33.8 18.1 36.4 2 29.3 3.6 32.8 6 35.8 9.1 38 20.8 40.9 29.6 39.1 37.5 33.3 40.1 29.9 41.6 25.6 41.6 20.9 41.6 20.8 41.6 20.8 41.6 20.7L41.6 20.7Z" />
  <path d="M12.3 19.4C8.7 19.4 4.8 18.5 0.7 17.1 0.4 18.3 0.3 19.6 0.3 20.9 0.3 21.9 0.4 22.8 0.5 23.7 4.6 25 8.6 25.8 12.4 26 12.4 26 11.3 22.9 12.3 19.4L12.3 19.4Z" />
  <path d="M28.6 15.7C31.2 18.1 31.6 21.9 31.6 21.9 34.9 20 37.9 17.5 40.6 14.4 39.8 12.1 38.7 10 37.3 8.1 34.7 11.4 31.8 14 28.6 15.7L28.6 15.7Z" />
  <path d="M28.2 20C28 18.7 27.2 17.7 26.2 17 24.7 16 22.8 15.6 20.7 16 18.5 16.4 16.6 17.8 15.8 19.4 15.3 20.4 15.1 21.4 15.3 22.5 15.6 24 16.6 25.2 18.1 26 18.1 26 18.1 26 18.1 26 17.9 27.2 17.2 28.4 17.2 28.4 17.2 28.4 19.6 28.3 21.1 26.7 21.6 26.7 22.2 26.6 22.8 26.5 24.6 26.1 26.1 25.2 27.1 24 28 22.8 28.5 21.4 28.2 20L28.2 20Z" />
  <path d="M31.4 3.6C31.5 3.4 31.6 3.3 31.7 3.1 30.1 2.1 28.4 1.3 26.5 0.8 21.4 6.4 14.9 7.7 6.9 5.6 5.4 7 4.2 8.6 3.2 10.3 13.4 14.3 25 12.7 31.4 3.6L31.4 3.6Z" />
</svg>