<svg
  width="123"
  height="44"
  viewBox="0 0 123 44"
  fill="none"
  xmlns="http://www.w3.org/2000/svg"
>
  <path
    d="M59.7959 31.6636C59.7614 31.6632 59.7274 31.6546 59.6969 31.6384C59.6664 31.6223 59.6402 31.5991 59.6205 31.5707L58.7056 30.2534C58.6835 30.2228 58.6702 30.1868 58.6672 30.1492C58.6641 30.1116 58.6715 30.0739 58.6884 30.0401C58.7037 30.0056 58.7282 29.9759 58.759 29.9541C58.7899 29.9323 58.8261 29.9193 58.8638 29.9163C65.4298 29.2903 70.6682 26.9859 75.8516 22.4422C75.8737 22.4222 75.9 22.4072 75.9285 22.3983C75.957 22.3894 75.9871 22.3868 76.0167 22.3906C76.0459 22.3927 76.0743 22.4012 76.0998 22.4154C76.1254 22.4297 76.1475 22.4494 76.1646 22.4732L77.0279 23.6082C77.0625 23.6509 77.079 23.7054 77.0738 23.76C77.0687 23.8147 77.0423 23.8652 77.0004 23.9006C71.6244 28.5543 66.6371 30.8003 59.8234 31.6602L59.7959 31.6636Z"
    fill="white"
  />
  <path
    d="M69.1789 12.2444H67.6552C67.5355 12.2444 67.4385 12.3414 67.4385 12.4611V24.8399C67.4385 24.9596 67.5355 25.0566 67.6552 25.0566H69.1789C69.2986 25.0566 69.3956 24.9596 69.3956 24.8399V12.4611C69.3956 12.3414 69.2986 12.2444 69.1789 12.2444Z"
    fill="white"
  />
  <path
    d="M60.7038 23.4848H59.0356C58.9993 23.4848 58.9636 23.4757 58.9317 23.4582C58.8999 23.4408 58.8729 23.4157 58.8533 23.3851C58.8365 23.3533 58.8276 23.3179 58.8276 23.2819C58.8276 23.2459 58.8365 23.2105 58.8533 23.1787L62.4304 15.2988C62.4513 15.2634 62.4803 15.2334 62.5149 15.2113C62.5496 15.1892 62.589 15.1755 62.6299 15.1715H64.2981C64.3339 15.172 64.3691 15.181 64.4008 15.1978C64.4325 15.2145 64.4598 15.2385 64.4804 15.2678C64.4972 15.2996 64.5061 15.335 64.5061 15.371C64.5061 15.407 64.4972 15.4424 64.4804 15.4742L60.8998 23.361C60.8826 23.3984 60.8549 23.4299 60.8201 23.4519C60.7853 23.4739 60.7449 23.4853 60.7038 23.4848Z"
    fill="white"
  />
  <path
    d="M75.6109 20.9877C75.5734 20.9876 75.5365 20.9777 75.5039 20.959C75.4714 20.9403 75.4442 20.9134 75.4252 20.8811L72.3124 15.4776C72.293 15.4454 72.2827 15.4086 72.2827 15.371C72.2827 15.3334 72.293 15.2965 72.3124 15.2644C72.3308 15.2311 72.3577 15.2034 72.3903 15.1841C72.423 15.1647 72.4602 15.1545 72.4981 15.1543H74.2523C74.2893 15.1587 74.3251 15.1704 74.3575 15.1887C74.39 15.207 74.4185 15.2315 74.4415 15.2609L77.5577 20.6644C77.5764 20.6968 77.5862 20.7336 77.5862 20.771C77.5862 20.8085 77.5764 20.8452 77.5577 20.8777C77.5396 20.9111 77.5128 20.939 77.48 20.9584C77.4473 20.9778 77.41 20.9879 77.3719 20.9877H75.6212H75.6109Z"
    fill="white"
  />
  <path
    d="M108.489 31.6192C108.464 31.6241 108.439 31.6241 108.414 31.6192L107.124 31.1239C107.071 31.1023 107.028 31.0619 107.003 31.0104C106.992 30.9843 106.987 30.9562 106.987 30.9279C106.987 30.8995 106.992 30.8715 107.003 30.8453L107.774 28.847C108.085 28.0373 108.336 27.2062 108.527 26.3602C108.806 25.1032 108.947 23.8195 108.947 22.532V13.971C108.947 13.9077 108.97 13.8466 109.012 13.799C109.057 13.7578 109.105 13.6959 109.17 13.7165C114.471 13.8403 116.696 13.2246 119.51 12.4439L120.197 12.2513C120.241 12.2388 120.288 12.2408 120.331 12.2569C120.374 12.273 120.41 12.3023 120.435 12.3407L121.25 13.5652C121.269 13.5924 121.281 13.6239 121.285 13.6568C121.289 13.6897 121.286 13.7232 121.274 13.7543C121.263 13.7864 121.245 13.8154 121.22 13.8387C121.195 13.8621 121.166 13.8792 121.133 13.8885L120.789 13.9917C117.9 14.8653 115.791 15.5051 110.955 15.5532C110.902 15.5532 110.85 15.574 110.812 15.6112C110.773 15.6484 110.751 15.6992 110.749 15.7527V22.6627C110.747 24.03 110.59 25.3927 110.281 26.7248L110.209 27.0343C110.018 27.8787 109.767 28.7085 109.459 29.5177L108.692 31.4885C108.672 31.5421 108.631 31.5854 108.579 31.6089C108.55 31.6191 108.52 31.6226 108.489 31.6192Z"
    fill="white"
  />
  <path
    d="M105.596 22.0021C105.56 22.0018 105.525 21.9921 105.493 21.974C105.462 21.956 105.436 21.9301 105.417 21.8989L102.965 18.0226C102.949 17.999 102.939 17.9726 102.933 17.9448C102.928 17.9169 102.929 17.8884 102.935 17.8607C102.941 17.8331 102.952 17.807 102.969 17.784C102.985 17.7609 103.006 17.7415 103.03 17.7268L104.798 16.6089C104.827 16.5922 104.852 16.5697 104.871 16.5428C104.89 16.5159 104.904 16.4853 104.911 16.4529C104.917 16.4205 104.917 16.3871 104.91 16.3547C104.904 16.3224 104.89 16.2918 104.871 16.265L103.02 13.3827C103.005 13.359 102.994 13.3325 102.989 13.3048C102.984 13.2771 102.985 13.2486 102.991 13.2211C102.997 13.1936 103.009 13.1676 103.025 13.1446C103.041 13.1215 103.062 13.1019 103.085 13.0869L104.368 12.2614C104.417 12.2313 104.475 12.2213 104.531 12.2335C104.587 12.2457 104.636 12.2791 104.668 12.3267L106.962 15.9038C106.976 15.9216 106.986 15.943 106.989 15.9657L107.577 16.8944C107.593 16.9179 107.604 16.9444 107.609 16.9722C107.614 17 107.614 17.0286 107.608 17.0562C107.602 17.0839 107.59 17.11 107.574 17.133C107.557 17.156 107.536 17.1755 107.512 17.1902L105.755 18.3012C105.726 18.3183 105.702 18.341 105.683 18.3678C105.664 18.3945 105.65 18.4249 105.643 18.457C105.636 18.4892 105.636 18.5224 105.642 18.5547C105.648 18.587 105.661 18.6178 105.679 18.6451L107.072 20.843C107.087 20.8666 107.098 20.8932 107.102 20.921C107.107 20.9488 107.106 20.9772 107.099 21.0046C107.086 21.0613 107.052 21.1106 107.003 21.1422L105.713 21.9574C105.679 21.9823 105.639 21.9978 105.596 22.0021Z"
    fill="white"
  />
  <path
    d="M104.437 31.7738C104.411 31.779 104.384 31.779 104.358 31.7738L102.924 31.196C102.898 31.1858 102.874 31.1704 102.853 31.1508C102.833 31.1312 102.817 31.1078 102.806 31.0819C102.794 31.0559 102.788 31.0281 102.788 30.9998C102.788 30.9716 102.793 30.9436 102.804 30.9174L106.078 22.6006C106.088 22.5743 106.104 22.5503 106.123 22.53C106.143 22.5096 106.166 22.4934 106.192 22.4822C106.218 22.471 106.246 22.4651 106.274 22.4647C106.302 22.4644 106.33 22.4697 106.357 22.4802L107.777 23.0374C107.804 23.0477 107.828 23.0631 107.849 23.083C107.87 23.1028 107.886 23.1266 107.897 23.1529C107.908 23.1793 107.914 23.2076 107.914 23.2362C107.914 23.2648 107.909 23.2931 107.898 23.3195L104.644 31.6363C104.634 31.6623 104.618 31.6861 104.599 31.7062C104.579 31.7263 104.556 31.7423 104.53 31.7532C104.502 31.768 104.47 31.7751 104.437 31.7738Z"
    fill="white"
  />
  <path
    d="M120.84 31.6636C120.806 31.6639 120.772 31.6559 120.742 31.6404C120.711 31.6248 120.685 31.6021 120.665 31.5742L119.017 29.2938C118.718 28.8804 118.452 28.4446 118.219 27.9902L117.39 26.3633C117.06 25.7177 116.802 25.037 116.623 24.334L115.141 18.6003C115.131 18.5609 115.107 18.5266 115.073 18.5033C115.04 18.4799 114.999 18.4692 114.959 18.473C114.594 18.5006 114.247 18.5212 113.903 18.5384C113.861 18.5393 113.822 18.5564 113.793 18.5859C113.764 18.6155 113.748 18.6552 113.748 18.6966V29.5965C113.748 29.6485 113.769 29.6983 113.805 29.7351C113.842 29.7719 113.892 29.7925 113.944 29.7925H116.506C116.564 29.7925 116.619 29.8153 116.66 29.856C116.7 29.8966 116.723 29.9517 116.723 30.0092V31.385C116.723 31.4425 116.7 31.4976 116.66 31.5382C116.619 31.5789 116.564 31.6017 116.506 31.6017H112.169C112.107 31.6008 112.049 31.5759 112.005 31.5322C111.961 31.4885 111.936 31.4296 111.935 31.3678V17.6097C111.934 17.5926 111.934 17.5753 111.935 17.5581V16.9562C111.936 16.8987 111.958 16.8435 111.997 16.8014C112.018 16.7814 112.042 16.7656 112.068 16.755C112.095 16.7444 112.123 16.7391 112.152 16.7395C114.519 16.7334 116.877 16.4506 119.179 15.8968L120.097 15.7077C120.142 15.6978 120.189 15.7029 120.231 15.7222C120.272 15.7414 120.306 15.7738 120.328 15.8143L121.04 17.1385C121.055 17.1683 121.063 17.2013 121.063 17.2348C121.063 17.2683 121.055 17.3013 121.04 17.3311C121.026 17.3618 121.005 17.3888 120.979 17.4098C120.952 17.4307 120.921 17.445 120.888 17.4515L119.991 17.6476C119.017 17.8642 118.092 18.0706 117.098 18.2323C117.075 18.2355 117.053 18.2434 117.034 18.2556C117.014 18.2678 116.997 18.284 116.984 18.3031C116.971 18.3223 116.962 18.3439 116.958 18.3667C116.954 18.3894 116.955 18.4128 116.96 18.4352L117.851 21.9057C117.858 21.9322 117.871 21.9569 117.888 21.9782C117.905 21.9996 117.926 22.017 117.951 22.0293C117.975 22.0417 118.002 22.0487 118.029 22.0499C118.057 22.0512 118.084 22.0465 118.109 22.0364L120.985 20.8257C121.011 20.8137 121.039 20.8074 121.067 20.8074C121.096 20.8074 121.124 20.8137 121.15 20.8257C121.177 20.836 121.201 20.8517 121.222 20.8718C121.243 20.8919 121.259 20.916 121.27 20.9426L121.796 22.2187C121.818 22.2716 121.818 22.331 121.796 22.3838C121.774 22.4366 121.732 22.4787 121.68 22.5007L118.525 23.8077C118.483 23.824 118.448 23.8557 118.428 23.8964C118.407 23.9372 118.403 23.9841 118.415 24.0279C118.581 24.5842 118.798 25.1242 119.062 25.641L119.75 26.9687C119.958 27.3861 120.197 27.7873 120.465 28.1691L122.378 30.8519C122.398 30.8793 122.411 30.9111 122.416 30.9445C122.421 30.978 122.419 31.0122 122.409 31.0445C122.399 31.0766 122.382 31.1059 122.359 31.1299C122.335 31.1538 122.306 31.1718 122.275 31.1821L120.899 31.6499C120.88 31.6582 120.86 31.6629 120.84 31.6636Z"
    fill="white"
  />
  <path
    d="M86.8374 22.3153H85.3137C85.2563 22.3153 85.2011 22.2925 85.1605 22.2518C85.1199 22.2112 85.097 22.1561 85.097 22.0986V18.1329C85.097 18.0845 85.0778 18.0381 85.0436 18.004C85.0095 17.9698 84.9631 17.9506 84.9147 17.9506H80.8905C80.8339 17.9506 80.7797 17.9281 80.7397 17.8881C80.6997 17.8481 80.6772 17.7939 80.6772 17.7373V16.3546C80.6772 16.2977 80.6996 16.2431 80.7395 16.2026C80.7794 16.1621 80.8336 16.1388 80.8905 16.1379H84.9147C84.9631 16.1379 85.0095 16.1187 85.0436 16.0845C85.0778 16.0503 85.097 16.004 85.097 15.9556V12.4611C85.097 12.4036 85.1199 12.3485 85.1605 12.3079C85.2011 12.2672 85.2563 12.2444 85.3137 12.2444H86.8374C86.8949 12.2444 86.95 12.2672 86.9907 12.3079C87.0313 12.3485 87.0541 12.4036 87.0541 12.4611V15.9591C87.0541 16.0074 87.0733 16.0538 87.1075 16.088C87.1417 16.1222 87.1881 16.1414 87.2364 16.1414H91.2813C91.3388 16.1414 91.3939 16.1642 91.4345 16.2048C91.4752 16.2455 91.498 16.3006 91.498 16.3581V17.7339C91.4971 17.7907 91.4739 17.845 91.4333 17.8849C91.3928 17.9248 91.3382 17.9471 91.2813 17.9471H87.2364C87.2125 17.9471 87.1888 17.9518 87.1667 17.961C87.1445 17.9702 87.1244 17.9836 87.1075 18.0005C87.0906 18.0174 87.0772 18.0375 87.068 18.0597C87.0588 18.0818 87.0541 18.1055 87.0541 18.1294V22.0986C87.0541 22.1561 87.0313 22.2112 86.9907 22.2518C86.95 22.2925 86.8949 22.3153 86.8374 22.3153Z"
    fill="white"
  />
  <path
    d="M82.9748 16.1823C82.9352 16.182 82.8963 16.1709 82.8624 16.1503C82.8285 16.1298 82.8008 16.1004 82.7822 16.0654L81.3273 13.2243C81.3069 13.1712 81.3069 13.1124 81.3273 13.0592C81.3472 13.0048 81.3864 12.9595 81.4374 12.9319L82.796 12.244C82.8469 12.2195 82.9052 12.2154 82.959 12.2327C83.0128 12.25 83.0579 12.2873 83.0849 12.3369L84.5364 15.1814C84.5475 15.2075 84.5533 15.2356 84.5533 15.2639C84.5533 15.2923 84.5475 15.3204 84.5364 15.3465C84.518 15.3999 84.4799 15.4442 84.4298 15.4703L83.0539 16.1582C83.0295 16.1717 83.0026 16.1799 82.9748 16.1823Z"
    fill="white"
  />
  <path
    d="M89.0079 16.1928C88.9581 16.1921 88.9098 16.1752 88.8704 16.1447L87.7044 15.161C87.6607 15.1236 87.6335 15.0707 87.6283 15.0135C87.6232 14.9563 87.6406 14.8994 87.6768 14.8549L89.8025 12.3337C89.8392 12.2903 89.8915 12.2631 89.9482 12.258C90.0048 12.2528 90.0612 12.2701 90.1051 12.3062L91.2711 13.2899C91.3147 13.3272 91.342 13.3802 91.3472 13.4373C91.3523 13.4945 91.3349 13.5515 91.2987 13.596L89.1662 16.1172C89.1468 16.1404 89.1226 16.1593 89.0953 16.1723C89.068 16.1854 89.0382 16.1924 89.0079 16.1928Z"
    fill="white"
  />
  <path
    d="M82.232 21.9712C82.1813 21.9715 82.1324 21.9531 82.0944 21.9196L80.9112 20.9359C80.8891 20.9185 80.871 20.8966 80.8579 20.8717C80.8449 20.8468 80.8373 20.8195 80.8355 20.7914C80.8314 20.734 80.8499 20.6772 80.8871 20.6332L83.0747 18.0364C83.0921 18.0143 83.1139 17.9961 83.1388 17.9831C83.1637 17.9701 83.1911 17.9624 83.2191 17.9607C83.2474 17.9562 83.2764 17.9582 83.3038 17.9666C83.3312 17.9749 83.3563 17.9894 83.3773 18.0089L84.5433 18.9926C84.5653 19.0108 84.5835 19.0332 84.5968 19.0585C84.6101 19.0838 84.6182 19.1114 84.6208 19.1399C84.6233 19.1683 84.6202 19.197 84.6117 19.2243C84.6031 19.2515 84.5892 19.2768 84.5709 19.2987L82.3833 21.8921C82.3648 21.9148 82.3418 21.9336 82.3158 21.9472C82.2898 21.9608 82.2613 21.9689 82.232 21.9712Z"
    fill="white"
  />
  <path
    d="M89.7574 21.8575C89.7232 21.8573 89.6896 21.849 89.6591 21.8335C89.6287 21.818 89.6023 21.7956 89.582 21.7681L87.6902 19.2057C87.6731 19.1828 87.6609 19.1566 87.6544 19.1288C87.6478 19.101 87.6472 19.0721 87.6524 19.044C87.6562 19.0162 87.6655 18.9895 87.6796 18.9653C87.6938 18.9411 87.7126 18.9199 87.735 18.903L88.9629 17.9984C88.9855 17.981 89.0114 17.9684 89.039 17.9613C89.0667 17.9541 89.0954 17.9526 89.1237 17.9568C89.1519 17.9609 89.179 17.9707 89.2034 17.9855C89.2277 18.0004 89.2489 18.02 89.2655 18.0431L91.1573 20.609C91.1912 20.6543 91.206 20.7111 91.1986 20.7672C91.188 20.8231 91.1574 20.8732 91.1126 20.9082L89.8847 21.8163C89.8477 21.8431 89.8031 21.8575 89.7574 21.8575Z"
    fill="white"
  />
  <path
    d="M91.608 30.1846C91.6414 30.1992 91.6706 30.222 91.6928 30.2508C91.7151 30.2797 91.7297 30.3137 91.7353 30.3497C91.7407 30.3861 91.7366 30.4233 91.7233 30.4577C91.71 30.492 91.6881 30.5224 91.6596 30.5457L90.4971 31.526C90.4305 31.5813 90.3497 31.6168 90.264 31.6284C90.1782 31.6399 90.0909 31.6271 90.0121 31.5914L86.4384 29.9198C86.4078 29.9053 86.3743 29.8979 86.3404 29.8979C86.3065 29.8979 86.2731 29.9053 86.2424 29.9198L84.8666 30.5217C84.2475 30.79 83.6111 31.0273 82.9645 31.2337L81.2551 31.7599C81.2003 31.7772 81.141 31.772 81.09 31.7456C81.0391 31.7191 81.0007 31.6736 80.9834 31.6189L80.6394 30.5217C80.6213 30.465 80.6146 30.4053 80.6197 30.346C80.6248 30.2867 80.6415 30.229 80.669 30.1763C80.6965 30.1235 80.7342 30.0767 80.7799 30.0386C80.8256 30.0005 80.8784 29.9718 80.9352 29.9541L82.7616 29.3763C83.1014 29.2699 83.4355 29.1459 83.7625 29.0048L84.1305 28.8432L83.3188 28.4614L81.5096 27.6153C81.4826 27.6026 81.4585 27.5845 81.439 27.562C81.4194 27.5394 81.4048 27.5131 81.3961 27.4846C81.3842 27.4581 81.3781 27.4293 81.3781 27.4003C81.3781 27.3713 81.3842 27.3425 81.3961 27.316L82.4039 25.4862C82.422 25.4502 82.4306 25.4102 82.429 25.3699C82.4273 25.3296 82.4154 25.2904 82.3945 25.256C82.3735 25.2216 82.344 25.1931 82.309 25.1732C82.2739 25.1533 82.2344 25.1426 82.1941 25.1423H81.0556C80.9352 25.1423 80.8197 25.0944 80.7345 25.0093C80.6494 24.9241 80.6016 24.8086 80.6016 24.6882V23.7664C80.6016 23.646 80.6494 23.5305 80.7345 23.4454C80.8197 23.3603 80.9352 23.3124 81.0556 23.3124H83.5974L83.8966 22.7724C83.9155 22.7397 83.9425 22.7123 83.9751 22.6931C84.0076 22.6738 84.0446 22.6632 84.0824 22.6624H86.0119C86.0501 22.6625 86.0875 22.6727 86.1204 22.692C86.1533 22.7112 86.1806 22.7388 86.1994 22.772C86.2182 22.8051 86.228 22.8426 86.2277 22.8808C86.2274 22.9189 86.217 22.9563 86.1977 22.9891L86.0051 23.3124H91.2297C91.3501 23.3124 91.4656 23.3603 91.5507 23.4454C91.6359 23.5305 91.6837 23.646 91.6837 23.7664V25.3417C91.6838 25.4267 91.6671 25.5108 91.6346 25.5893C91.6022 25.6678 91.5546 25.7391 91.4945 25.7992L90.4833 26.8311C89.8203 27.5126 89.0922 28.1278 88.3095 28.6678L91.608 30.1846ZM84.385 26.9411L86.2045 27.7563C86.2414 27.7735 86.2821 27.7806 86.3225 27.777C86.363 27.7734 86.4018 27.7591 86.435 27.7357L87.3499 27.12C87.9444 26.7143 88.4994 26.2536 89.0078 25.7442L89.5994 25.1285H85.2415C85.1559 25.1274 85.0716 25.1492 84.9973 25.1915C84.9229 25.2338 84.8612 25.2952 84.8184 25.3693L84.2131 26.4011C84.185 26.447 84.1672 26.4983 84.1607 26.5517C84.1543 26.6051 84.1594 26.6592 84.1757 26.7104C84.192 26.7616 84.2192 26.8087 84.2553 26.8485C84.2914 26.8883 84.3357 26.9199 84.385 26.9411Z"
    fill="white"
  />
  <path
    d="M98.016 28.049L100.08 30.3053C100.119 30.3464 100.142 30.4013 100.142 30.4584C100.142 30.5155 100.119 30.5704 100.08 30.6114L98.9481 31.6433C98.929 31.6621 98.9065 31.6769 98.8817 31.687C98.8569 31.697 98.8303 31.702 98.8036 31.7018C98.746 31.6972 98.692 31.6715 98.6523 31.6295L96.224 28.9502C96.1998 28.9236 96.1703 28.9023 96.1374 28.8878C96.1046 28.8732 96.069 28.8657 96.0331 28.8657C95.9971 28.8657 95.9616 28.8732 95.9287 28.8878C95.8958 28.9023 95.8663 28.9236 95.8422 28.9502L93.3691 31.6089C93.3294 31.6504 93.2752 31.6751 93.2178 31.6777C93.1607 31.6784 93.1054 31.6575 93.063 31.6192L91.9486 30.5874C91.9277 30.5687 91.9108 30.5459 91.899 30.5205C91.8872 30.4951 91.8806 30.4675 91.8798 30.4395C91.8779 30.411 91.8822 30.3824 91.8923 30.3557C91.9024 30.329 91.9181 30.3048 91.9383 30.2847L93.9092 28.1659L94.6693 27.2545C94.702 27.2141 94.7198 27.1637 94.7198 27.1117C94.7198 27.0598 94.702 27.0094 94.6693 26.969L94.4216 26.625C93.6515 25.5831 93.1078 24.3916 92.8257 23.127L92.664 22.4013C92.5186 21.7439 92.4448 21.0728 92.4439 20.3995V16.3925C92.4444 16.3342 92.4679 16.2786 92.5093 16.2377C92.5288 16.2174 92.5524 16.2015 92.5784 16.1908C92.6045 16.1801 92.6325 16.175 92.6606 16.1758H94.1878C94.2446 16.1767 94.2989 16.1999 94.3388 16.2404C94.3787 16.281 94.401 16.3356 94.401 16.3925V20.1759C94.4018 20.8214 94.4722 21.4648 94.6108 22.0952L94.6693 22.36C94.899 23.406 95.3174 24.4014 95.9041 25.2974C95.9184 25.3173 95.9373 25.3335 95.9591 25.3446C95.9809 25.3558 96.0051 25.3616 96.0296 25.3616C96.0541 25.3616 96.0783 25.3558 96.1001 25.3446C96.122 25.3335 96.1408 25.3173 96.1552 25.2974C96.7645 24.3876 97.2039 23.3749 97.4519 22.3084L97.4794 22.1777C97.6374 21.5164 97.7171 20.8387 97.7167 20.1587V15.7355C97.7167 15.6954 97.7008 15.6569 97.6724 15.6285C97.644 15.6001 97.6055 15.5842 97.5654 15.5842H92.6675C92.61 15.5842 92.5549 15.5613 92.5143 15.5207C92.4736 15.4801 92.4508 15.4249 92.4508 15.3675V12.4611C92.4508 12.4036 92.4736 12.3485 92.5143 12.3079C92.5549 12.2672 92.61 12.2444 92.6675 12.2444H94.1912C94.2487 12.2444 94.3038 12.2672 94.3444 12.3079C94.3851 12.3485 94.4079 12.4036 94.4079 12.4611V13.7715H99.4571C99.5146 13.7715 99.5697 13.7944 99.6103 13.835C99.651 13.8756 99.6738 13.9308 99.6738 13.9882V15.364V20.317C99.6742 21.0418 99.5911 21.7643 99.4261 22.4701L99.2576 23.1958C98.9736 24.4183 98.4344 25.567 97.6754 26.5666L97.3693 26.969C97.3342 27.0129 97.315 27.0675 97.315 27.1238C97.315 27.18 97.3342 27.2346 97.3693 27.2786L98.016 28.049Z"
    fill="white"
  />
  <path
    d="M22 44C34.1503 44 44 34.1503 44 22C44 9.84973 34.1503 0 22 0C9.84973 0 0 9.84973 0 22C0 34.1503 9.84973 44 22 44Z"
    fill="#fff"
  />
  <path
    d="M31.9567 11.2674L10.7287 14.8261C10.5187 14.8604 10.3255 14.9619 10.1782 15.1154C10.0308 15.2689 9.93724 15.466 9.91149 15.6772L9.69307 17.4471C9.67425 17.5984 9.69085 17.7519 9.74157 17.8956C9.79228 18.0394 9.87573 18.1693 9.9853 18.2752C10.0949 18.3812 10.2276 18.4601 10.3729 18.506C10.5183 18.5518 10.6723 18.5632 10.8228 18.5392L14.9652 17.8463V32.5331C14.9654 32.7115 15.0139 32.8865 15.1056 33.0395C15.1973 33.1925 15.3288 33.3178 15.486 33.402C15.6433 33.4862 15.8204 33.5262 15.9986 33.5178C16.1768 33.5093 16.3494 33.4527 16.4979 33.354L18.0758 32.3335C18.2622 32.2095 18.4154 32.0417 18.5217 31.8447C18.6281 31.6477 18.6845 31.4276 18.6859 31.2037V17.225L24.3572 16.276V26.6019C24.3568 27.2336 24.512 27.8558 24.8091 28.4132L27.3285 33.1394C27.3997 33.2766 27.5081 33.391 27.6413 33.4696C27.7745 33.5482 27.9271 33.5877 28.0816 33.5837H30.2319C30.3759 33.5845 30.5177 33.5482 30.6436 33.4784C30.7695 33.4086 30.8754 33.3076 30.951 33.1851C31.0266 33.0626 31.0695 32.9227 31.0755 32.7788C31.0814 32.6349 31.0503 32.492 30.9851 32.3636L28.4545 27.5094C28.1752 26.9626 28.0294 26.3573 28.0289 25.7433V15.6584L32.0659 14.9805C32.2752 14.9455 32.4675 14.8436 32.6141 14.6902C32.7607 14.5368 32.8538 14.3401 32.8793 14.1294L33.0977 12.3595C33.117 12.2072 33.1003 12.0524 33.049 11.9077C32.9977 11.763 32.9131 11.6323 32.8022 11.5261C32.6913 11.4199 32.557 11.3412 32.4102 11.2963C32.2633 11.2514 32.108 11.2415 31.9567 11.2674Z"
    fill="#131A22"
  />
</svg>