<?xml version="1.0" standalone="no"?>
<!DOCTYPE svg PUBLIC "-//W3C//DTD SVG 20010904//EN"
 "http://www.w3.org/TR/2001/REC-SVG-20010904/DTD/svg10.dtd">
<svg version="1.0" xmlns="http://www.w3.org/2000/svg"
 width="1536.000000pt" height="1536.000000pt" viewBox="0 0 1536.000000 1536.000000"
 preserveAspectRatio="xMidYMid meet">

<g transform="translate(0.000000,1536.000000) scale(0.100000,-0.100000)"
fill="#000000" stroke="none">
<path d="M0 7680 l0 -7680 7680 0 7680 0 0 7680 0 7680 -7680 0 -7680 0 0
-7680z m12400 2230 l0 -1730 -540 0 -540 0 0 1175 0 1175 -1152 2 -1153 3 -3
553 -2 552 1695 0 1695 0 0 -1730z m-3620 800 l0 -410 1150 0 1150 0 0 -1175
0 -1175 400 0 400 0 0 -1110 0 -1110 -3477 2 -3478 3 -3 2680 c-1 1474 0 2686
3 2693 3 9 399 12 1930 12 l1925 0 0 -410z m-4090 -2905 l0 -2305 3105 0 3105
0 0 -385 0 -385 -3480 0 -3480 0 0 2690 0 2690 375 0 375 0 0 -2305z m-980
-1010 l0 -2305 3105 0 3105 0 0 -385 0 -385 -3480 0 -3480 0 0 2690 0 2690
375 0 375 0 0 -2305z"/>
<path d="M7970 9355 l0 -485 -477 0 -478 0 3 -445 2 -445 473 -2 472 -3 3
-482 2 -483 430 0 430 0 2 483 3 482 478 3 477 2 0 445 0 445 -480 0 -480 0 0
485 0 485 -430 0 -430 0 0 -485z"/>
</g>
</svg>
